<svg xmlns="http://www.w3.org/2000/svg" xmlns:xlink="http://www.w3.org/1999/xlink" version="1.1" x="0px" y="0px" viewBox="0 0 100 125" enable-background="new 0 0 100 100" xml:space="preserve"><g><g><g><path fill="#D9BF41" fill-rule="evenodd" clip-rule="evenodd" d="M50.013,94.34l-3.212-5.65c-3.533-6.276-15.461-27.395-19.184-34.216     c-2.695-5.106-5.996-13.552-5.996-20.446c0-15.62,12.771-28.367,28.365-28.367c15.628,0,28.393,12.747,28.393,28.367     c0,6.604-3.063,15.496-5.93,20.525c-4.807,8.365-19.224,34.07-19.345,34.209L50.013,94.34z M50.013,12.766L50.013,12.766     c-11.709,0-21.299,9.565-21.299,21.262c0,5.185,2.626,12.31,5.184,17.038c2.943,5.414,11.277,20.3,16.089,28.757     c4.634-8.309,12.832-22.816,16.239-28.829c2.34-4.144,4.967-11.846,4.967-16.966c0-5.715-2.219-10.957-6.209-15.022     c-4.026-4.007-9.355-6.239-14.997-6.239H50.013z"/></g></g><path fill="#D9BF41" d="M64.848,33.005c0-0.585-0.13-1.142-0.369-1.652c-0.022-0.131-0.053-0.26-0.087-0.391l-2.579-6.395   l-0.018-0.057c-0.903-2.688-2.188-5.176-5.443-5.176H43.899c-3.337,0-4.518,2.549-5.44,5.159l-2.697,6.41   c-0.392,0.626-0.612,1.341-0.612,2.101v1.989c0,0.308,0.037,0.608,0.105,0.898c-0.067,0.175-0.105,0.364-0.105,0.563v5.916   c0,0.869,0.704,1.572,1.571,1.572h3.262c0.865,0,1.568-0.703,1.568-1.572v-2.958h17.084v2.958c0,0.869,0.702,1.572,1.571,1.572   h3.072c0.868,0,1.572-0.703,1.572-1.572v-5.917c0-0.197-0.039-0.388-0.104-0.562c0.068-0.29,0.104-0.591,0.104-0.899v-1.988H64.848   z M40.374,25.137c1.028-2.897,1.854-3.783,3.525-3.783h12.45c1.658,0,2.581,0.986,3.52,3.771l1.884,3.814   c-0.615-0.228-1.291-0.354-2.004-0.354H40.248c-0.64,0-1.252,0.103-1.815,0.29L40.374,25.137z M41.991,35.749h-3.439   c-0.62,0-1.122-0.502-1.122-1.121s0.502-1.122,1.122-1.122h3.439c0.619,0,1.122,0.503,1.122,1.122S42.61,35.749,41.991,35.749    M54.144,35.525h-8.001c-0.393,0-0.711-0.318-0.711-0.711s0.318-0.71,0.711-0.71h8.001c0.394,0,0.711,0.317,0.711,0.71   S54.537,35.525,54.144,35.525 M61.361,35.749H57.92c-0.619,0-1.12-0.502-1.12-1.121s0.501-1.122,1.12-1.122h3.441   c0.618,0,1.122,0.503,1.122,1.122S61.979,35.749,61.361,35.749"/></g></svg>