<svg xmlns="http://www.w3.org/2000/svg" xmlns:xlink="http://www.w3.org/1999/xlink" version="1.1" x="0px" y="0px" viewBox="0 0 100 125" enable-background="new 0 0 100 100" xml:space="preserve"><g><g><path fill="none" d="M29.546,43.211c0.011,0.228,0.017,0.456,0.026,0.684c0.508-0.212,1.016-0.425,1.526-0.637    c0.072-0.03,0.145-0.057,0.217-0.087c-0.458,0.018-0.916,0.038-1.375,0.056C29.806,43.233,29.675,43.225,29.546,43.211z"/><path fill="none" d="M47.518,82.143c0.153-0.015,0.306-0.029,0.459-0.044c-0.013-0.085-0.027-0.169-0.039-0.254    C47.812,81.962,47.671,82.061,47.518,82.143z"/><path fill="#D9BF41" d="M76.472,86.694c-0.477-0.816-1.411-1.667-2.379-1.83c-1.344-0.228-2.689-0.397-4.042-0.498    c0.037-0.18,0.062-0.361,0.062-0.54c0-0.982-0.53-1.838-1.351-2.35c-0.299-0.21-0.624-0.366-0.975-0.474    c-0.53-0.092-1.062-0.161-1.597-0.217c-0.383-0.039-0.78-0.019-1.166-0.029c-0.097-0.003-0.194-0.004-0.291-0.004    c-0.578,0-1.16,0.044-1.737,0.064c-1.202,0.043-2.406,0.14-3.603,0.243c-1.749,0.15-3.497,0.311-5.245,0.468    c-0.093-0.648-0.186-1.295-0.277-1.942c-0.388-3.062-0.731-6.13-1.127-9.194c-0.407-3.16-0.824-6.322-1.216-9.484    c-0.209-1.693-0.414-3.384-0.518-5.086c-0.099-1.609-0.149-3.22-0.161-4.833c-0.024-3.393,0.13-6.767,0.397-10.151    c0.183-2.285,0.443-4.564,0.708-6.842c0.091-0.773-0.385-1.676-0.91-2.201c-0.58-0.58-1.378-0.91-2.201-0.91    c-0.821,0-1.618,0.33-2.199,0.91c-0.164,0.21-0.325,0.419-0.486,0.631c-0.124,0.213-0.216,0.434-0.286,0.662    c-0.656,0.266-1.283,0.538-1.863,0.955c-0.494,0.354-0.982,0.713-1.486,1.055c-0.882,0.596-1.816,1.099-2.765,1.577    c-0.295,0.109-0.59,0.203-0.896,0.281c-0.718,0.015-1.436-0.091-2.156-0.103c-0.612-0.012-1.226-0.017-1.835,0.002    c-1.645,0.053-3.287,0.116-4.932,0.181c-0.325,0.013-0.634,0.083-0.93,0.181c-0.145-0.379-0.361-0.727-0.677-1.042    c-0.583-0.585-1.385-0.918-2.213-0.918c-0.826,0-1.628,0.332-2.213,0.918c-0.552,0.549-0.973,1.414-0.918,2.213    c0.231,3.307,0.366,6.678,1.301,9.876c0.132,0.454,0.376,0.855,0.694,1.179c0.014,0.178,0.039,0.356,0.087,0.529    c0.205,0.749,0.706,1.399,1.375,1.792c0.723,0.422,1.505,0.477,2.31,0.301c3.413-0.742,6.82-1.505,10.25-2.172    c0.735-0.142,1.474-0.263,2.204-0.421c0.36-0.079,0.711-0.19,1.053-0.322c-0.021,0.438-0.045,0.876-0.066,1.314    c-0.096,2.028-0.205,4.053-0.246,6.083c-0.051,2.387-0.101,4.773-0.125,7.162c-0.01,1.05-0.029,2.1-0.019,3.15    c0.007,0.711,0.012,1.421,0.019,2.134c0.002,0.318,0.022,0.633,0.034,0.951c0.036,0.848,0.108,1.802,0.549,2.555    c0.142,0.193,0.291,0.38,0.443,0.566c0.263,0.324,0.675,0.502,1.101,0.563c0.015,0.588,0.029,1.176,0.044,1.764    c0.012,0.461,0.023,0.928,0.042,1.397c-0.145,1.43-0.288,2.86-0.439,4.289c-0.052,0.492-0.104,0.985-0.155,1.478    c-4.254,0.443-8.505,0.915-12.755,1.397c-0.267,0.034-0.532,0.07-0.797,0.106c-0.508,0.142-0.951,0.4-1.325,0.771    c-0.559,0.561-0.879,1.329-0.879,2.122c0,0.79,0.32,1.558,0.879,2.119c0.19,0.19,0.43,0.372,0.695,0.522    c-0.194,0.732-0.2,1.513,0.003,2.25c0.296,1.074,1.016,2.009,1.98,2.572c0.342,0.145,0.684,0.289,1.028,0.434    c0.763,0.205,1.524,0.205,2.288,0c0.422-0.071,0.844-0.141,1.267-0.208c1.487-0.181,2.975-0.361,4.462-0.543    c1.329-0.161,2.659-0.253,3.995-0.349c3.133-0.224,6.269-0.465,9.409-0.559c3.21-0.094,6.421-0.144,9.631-0.195    c1.58-0.024,3.162-0.053,4.742-0.092c1.657-0.039,3.309-0.137,4.966-0.21c1.782-0.077,3.355-1.161,3.841-2.926    C77.159,88.737,77.012,87.617,76.472,86.694z M31.098,43.258c-0.51,0.212-1.018,0.424-1.526,0.637    c-0.009-0.228-0.016-0.456-0.026-0.684c0.13,0.014,0.261,0.022,0.394,0.017c0.459-0.018,0.917-0.038,1.375-0.056    C31.243,43.201,31.17,43.228,31.098,43.258z M47.518,82.143c0.153-0.082,0.294-0.18,0.42-0.298    c0.013,0.085,0.027,0.169,0.039,0.254C47.824,82.113,47.671,82.128,47.518,82.143z"/><path fill="#D9BF41" d="M38.792,15.314c-0.306,1.483-0.131,3.059,0.285,4.502c0.501,1.746,1.732,3.318,3.357,4.133    c0.45,0.224,0.899,0.383,1.359,0.493c0.188,0.134,0.385,0.257,0.592,0.364c0.797,0.417,1.719,0.566,2.608,0.448    c0.419,0.002,0.819-0.084,1.195-0.26c0.559-0.205,0.997-0.453,1.476-0.787c0.017-0.012,0.034-0.024,0.051-0.036    c0.919-0.282,1.756-0.731,2.497-1.363c1.464-1.25,2.3-2.965,2.878-4.771c0.289-0.908,0.424-1.91,0.518-2.856    c0.116-1.175,0.024-2.358-0.34-3.485c-0.323-0.997-0.884-1.972-1.566-2.765c-0.289-0.337-0.576-0.609-0.925-0.882    c-0.542-0.42-0.92-0.644-1.539-0.905c0-0.009,0-0.018,0-0.027c0-0.559-0.224-1.098-0.617-1.491C50.296,5.3,49.753,5,49.265,5    c-0.045,0-0.089,0.003-0.133,0.008c-1.806,0.219-3.605,0.419-5.303,1.101c-1.799,0.725-3.266,1.91-4.335,3.526    c-0.516,0.783-0.71,1.782-0.826,2.692c-0.055,0.431-0.082,0.845-0.082,1.279c-0.002,0.532,0.111,1.067,0.188,1.592    C38.779,15.236,38.786,15.275,38.792,15.314z"/></g></g></svg>