<svg xmlns:dc="http://purl.org/dc/elements/1.1/" xmlns:cc="http://creativecommons.org/ns#" xmlns:rdf="http://www.w3.org/1999/02/22-rdf-syntax-ns#" xmlns:svg="http://www.w3.org/2000/svg" xmlns="http://www.w3.org/2000/svg" xmlns:sodipodi="http://sodipodi.sourceforge.net/DTD/sodipodi-0.dtd" xmlns:inkscape="http://www.inkscape.org/namespaces/inkscape" version="1.1" x="0px" y="0px" viewBox="0 0 100 125"><g transform="translate(0,-952.36218)"><path style="text-indent:0;text-transform:none;direction:ltr;block-progression:tb;baseline-shift:baseline;color:#000000;enable-background:accumulate;" d="m 14.00544,957.5889 c 1.98514,26.8086 1.98514,62.7693 0,89.5779 -0.11162,1.7079 1.51203,3.3164 3.21818,3.1882 27.94441,-1.9967 37.60646,-1.9967 65.55088,0 1.70614,0.1282 3.3298,-1.4803 3.21818,-3.1882 -1.98514,-26.8086 -1.98514,-62.7693 0,-89.5779 0.13035,-1.7178 -1.50094,-3.3498 -3.21818,-3.2194 -28.95237,1.9975 -37.60141,1.9971 -65.55088,0 -1.77485,0.073 -3.28457,1.8249 -3.21818,3.2194 z m 6.1864,2.9692 c 23.92632,1.6473 34.82277,1.6521 59.61443,0 -1.71045,25.6762 -1.70933,57.9275 0,83.6082 -24.00482,-1.6479 -35.6096,-1.6479 -59.61443,0 1.70934,-25.6807 1.71046,-57.932 0,-83.6082 z m 13.81005,3.1568 c -0.79272,2.7606 -1.58348,5.5217 -2.37458,8.2827 -2.75168,0.7843 -5.50037,1.5788 -8.24853,2.3754 2.75466,0.7632 5.50084,1.5564 8.24853,2.3442 0.79053,2.7612 1.58243,5.522 2.37458,8.2826 0.79272,-2.7605 1.58348,-5.5216 2.37458,-8.2826 2.74526,-0.7965 5.49632,-1.5723 8.24854,-2.3442 -2.74691,-0.8009 -5.49809,-1.5868 -8.24854,-2.3754 -0.79053,-2.7612 -1.58243,-5.522 -2.37458,-8.2827 z m 20.15268,4.188 c 0.91316,1.3724 1.27262,2.7092 1.1248,3.3755 -0.43523,0.9941 -1.46508,1.0077 -2.28084,1.094 -0.52351,0 -0.99983,0.4765 -0.99983,1.0002 0,0.5237 0.47632,1.0002 0.99983,1.0002 2.12121,-0.015 3.46203,-0.9215 4.218,-2.6567 0.18637,-0.8403 0.0762,-1.7209 -0.21871,-2.5942 1.06226,0.5303 1.84001,1.1566 2.28084,1.8753 0.53347,1.2221 1.20527,2.3135 2.03089,3.1255 1.6872,1.2377 4.68667,-0.7627 4.90518,-2.4074 0.18905,-0.8524 0.0549,-1.7395 -0.24995,-2.6254 1.27418,0.5602 2.24535,1.2523 2.87449,2.0315 0.82502,1.2358 1.73227,2.4396 2.78075,3.1568 0.49219,0.2589 1.1819,0.01 1.39145,-0.5084 0.20953,-0.5153 -0.10849,-1.1773 -0.64158,-1.3356 -0.805,-0.7032 -1.33906,-1.8073 -1.9684,-2.5942 -1.14249,-1.4151 -3.02568,-2.9311 -6.24889,-3.4694 -1.04557,0.017 -1.15585,0.9884 -0.99982,1.5315 0.91315,1.3724 1.27261,2.7092 1.1248,3.3755 -0.37265,0.9033 -1.21309,0.9558 -1.9684,1.094 -0.52349,-0.7109 -0.94731,-1.6829 -1.34352,-2.4066 -0.89322,-1.4564 -2.57934,-3.0547 -5.81147,-3.5944 -0.96072,-0.063 -1.15584,0.9884 -0.99962,1.5323 z m 5.3428,10.2207 c -2.03642,1.1262 -3.75221,2.701 -5.43653,4.1258 -1.237,-1.6954 -3.25322,-3.1211 -5.03036,-3.3751 -2.38447,-0.2379 -4.54819,-0.3222 -6.43636,-0.1563 -4.14778,0.2411 -8.30443,3.231 -7.03,7.5326 0.23924,0.7301 0.66917,1.3753 1.09355,2.0315 -3.21644,1.5189 -5.8483,2.9536 -7.52991,4.3758 -2.30703,1.9512 -3.46249,4.2928 -3.6556,6.3137 -0.002,2.3885 0.56046,4.8273 -0.65614,6.126 -1.27574,1.8022 -0.80754,4.1696 1.18729,4.9071 2.0146,0.7093 5.15279,1.6467 8.52974,1.6878 -0.82305,0.6817 -1.1972,0.9438 -2.34333,2.0316 -0.90299,0.8577 -1.17976,2.3078 -0.65614,3.438 2.37208,5.1241 6.19881,8.1115 11.65419,8.0014 3.69159,-0.091 5.85301,-0.7558 8.77969,1.5629 0.87678,0.7019 2.16208,0.8483 3.17418,0.3616 1.01209,-0.4868 1.70044,-1.5824 1.69995,-2.7058 l 0,-6.3761 c 4.14784,-0.3781 7.45217,-0.3925 10.52939,-1.4065 4.70327,-1.9334 7.97728,-6.9731 8.62347,-11.4708 -0.50669,-5.2112 -1.73493,-10.6822 -0.53116,-14.9401 0.52122,-1.78 -1.02033,-3.8416 -2.87449,-3.8443 l -7.90485,0 c 0.72666,-2.0177 1.47145,-4.4147 0.99988,-6.2199 -1.1703,-2.8769 -3.61504,-3.238 -6.18646,-2.0009 z m -10.9668,6.72 c 0.95543,1.2273 1.80031,2.8445 2.68702,3.8444 1.0405,1.1467 3.01727,1.2648 4.18676,0.25 1.24285,-1.0826 2.02015,-1.6844 2.99947,-2.5004 -0.25413,0.7429 -0.25346,0.9388 -0.59365,1.844 -0.68503,1.81 0.87726,4.0675 2.812,4.0633 l 8.43601,0 c -0.85319,4.2271 0.69035,8.4416 0.87489,12.2833 -0.90523,2.4338 -2.06911,5.4863 -4.43671,6.2823 -1.9048,0.6279 -5.88413,0.508 -12.09161,1.3753 -1.4092,0.2079 -2.56233,1.5443 -2.56204,2.9693 l 0,4.407 c -3.05413,-0.8088 -5.89092,-0.5467 -7.77987,-0.5001 -2.45648,0.1619 -3.82559,-0.8966 -4.96787,-2.6255 1.12463,-0.9147 2.29773,-1.8023 3.24942,-2.8755 2.13031,-2.6894 1.64911,-5.0882 0.15622,-7.47 -0.79457,-1.1132 -2.40527,-1.5539 -3.6556,-1.0002 -1.52302,0.6703 -4.07765,0.3886 -6.49885,-0.094 0.60497,-1.8381 0.26448,-3.7007 0.0937,-5.5635 0.0561,-0.5862 0.0748,-1.0237 1.56222,-2.2816 1.4874,-1.258 4.45539,-3.011 9.59205,-5.1259 1.91227,-1.1163 2.46054,-3.4762 0.93733,-4.9697 -1.17362,-1.1192 -1.47823,-1.686 -1.74969,-2.1566 1.87913,-0.6085 4.67364,-0.3628 6.74881,-0.1559 z m 1.74969,7.0012 -1.81218,0.9064 c 0.33101,0.6697 0.61303,1.3348 0.8436,2.0315 -1.21898,0.2944 -2.35616,0.7158 -3.43689,1.2503 l 0.87484,1.7816 c 0.98322,-0.4863 1.96459,-0.8728 3.03072,-1.1252 0.16442,0.9865 0.22807,2.0531 0.15622,3.2505 l 1.99964,0.1251 c 0.0801,-1.3341 5.8e-4,-2.5453 -0.18746,-3.6882 0.68234,-0.053 1.40756,-0.047 2.18711,0 l 0.12498,-2.0003 c -0.97788,-0.059 -1.88221,-0.027 -2.74952,0.062 -0.30636,-0.9224 -0.66425,-1.8467 -1.03106,-2.5937 z m 4.71791,5.5322 0,2.0003 c 2.00336,1.2405 3.75361,3.9446 5.99894,4.0007 l 0,-2.0003 c -2.59903,-0.7582 -3.48056,-3.4054 -5.99894,-4.0007 z m 6.99876,4.0007 0,2.0003 c 1.71912,0.1267 1.99965,1.9876 1.49968,3.4381 l 1.62472,1.1252 c 0.87489,-2.5757 0.87489,-6.5764 -3.1244,-6.5636 z m -12.7165,4.2819 1.43725,1.4066 c 1.59187,-0.1879 3.65465,0.7163 4.99911,1.4999 l 1.03107,-1.719 c -2.61703,-1.1181 -5.1151,-2.488 -7.46743,-1.1875 z m -0.99982,1.0002 c -0.76416,0.7644 -2.61411,1.7191 -4.28049,1.7191 l 0,2.0003 c 2.33292,0 4.48226,-1.0769 5.71774,-2.3129 z m 9.27961,0.8752 -1.1248,1.6565 c 2.46482,1.3787 6.65718,2.1511 8.37351,-0.25 l -1.62471,-1.1252 c -1.79291,1.0009 -4.08177,0.7169 -5.624,-0.2813 z m -31.40064,20.3783 c 0.91315,1.3724 1.27261,2.7094 1.1248,3.3756 -0.43523,0.9941 -1.46508,1.0077 -2.28084,1.094 -0.52822,-0.01 -1.01406,0.4717 -1.01406,1.0001 0,0.5285 0.48584,1.0077 1.01406,1.0002 2.12124,-0.015 3.46214,-0.9215 4.218,-2.6566 0.18906,-0.8525 0.0549,-1.7394 -0.24995,-2.6255 1.27416,0.5601 2.24535,1.2523 2.87449,2.0316 0.51376,0.6675 0.93622,1.3116 1.3747,1.9071 0.89516,1.1634 1.57188,1.4802 2.64869,0.7898 1.13189,-1.4593 0.38567,-3.1035 0.0383,-4.7592 1.30908,0.5625 2.29816,1.2716 2.93698,2.0629 0.82501,1.2358 1.73229,2.4396 2.78075,3.1567 0.49228,0.2598 1.18297,0.01 1.39269,-0.5079 0.20971,-0.5157 -0.1091,-1.1783 -0.64282,-1.3361 -0.80498,-0.7031 -1.33906,-1.8072 -1.9684,-2.5942 -1.1425,-1.4151 -3.02566,-2.9311 -6.24889,-3.4694 -1.04549,0.017 -1.15601,0.987 -0.99983,1.5315 0.89914,1.3513 1.04767,2.3792 0.96858,2.9381 -0.20969,-0.3042 -0.44299,-0.6276 -0.71862,-0.969 -1.1425,-1.415 -3.02565,-2.9623 -6.24889,-3.5006 -1.15601,-0.013 -1.15601,0.987 -0.99974,1.5309 z m 34.9938,0 c 0.91315,1.3724 1.2726,2.7094 1.1248,3.3756 -0.43523,0.9941 -1.46508,1.0077 -2.28085,1.094 -1.68233,-0.9546 -3.31743,-1.7316 -4.84284,-2.0004 -1.04548,0.017 -0.98702,0.9771 -0.99982,1.5315 0.91315,1.3724 1.27261,2.7094 1.1248,3.3756 -0.43523,0.9941 -1.46508,1.0077 -2.28084,1.094 -0.52822,-0.01 -1.01406,0.4717 -1.01406,1.0001 0,0.5285 0.48584,1.0077 1.01406,1.0002 2.12124,-0.015 3.99919,-1.0128 4.218,-2.6566 0.18905,-0.8525 0.0549,-1.7394 -0.24996,-2.6255 1.27417,0.5601 2.24535,1.2523 2.87449,2.0316 0.82502,1.2358 1.7323,2.4396 2.78076,3.1567 0.49228,0.2597 1.18297,0.01 1.39268,-0.5079 0.20972,-0.5157 -0.10909,-1.1783 -0.64281,-1.3361 -0.69627,-0.6246 -1.20202,-1.5118 -1.71845,-2.2504 1.34194,-0.3253 2.09782,-1.4035 2.56205,-2.4691 0.18905,-0.8525 0.0549,-1.7394 -0.24996,-2.6255 1.27417,0.5601 2.24535,1.2523 2.87449,2.0316 0.82502,1.2358 1.73229,2.4396 2.78076,3.1567 0.49228,0.2598 1.18297,0.01 1.39268,-0.5079 0.20971,-0.5157 -0.10909,-1.1783 -0.64281,-1.3361 -0.80498,-0.7031 -1.33907,-1.8072 -1.96841,-2.5942 -1.14249,-1.4151 -3.02565,-2.9311 -6.24889,-3.4694 -0.95798,-0.09 -1.15614,0.9876 -0.99987,1.5315 z" fill="#ffffff" fill-opacity="1" stroke="none" marker="none" visibility="visible" display="inline" overflow="visible"/></g></svg>